<svg width="1270" height="776" viewBox="0 0 1270 776" fill="none" xmlns="http://www.w3.org/2000/svg">
<g id="Group 79">
<g id="test">
<rect id="Rectangle 64" x="838" y="702" width="557" height="484" transform="rotate(180 838 702)" fill="#7A94E2"/>
<rect id="Rectangle 65" x="1202" y="593" width="557" height="484" transform="rotate(180 1202 593)" fill="#59D1B4"/>
<rect id="Rectangle 66" x="557" y="484" width="557" height="484" transform="rotate(180 557 484)" fill="#9F5045"/>
</g>
<path id="Hi my name is Jingxuan" d="M1238.55 729L1243.27 729L1243.27 745.431L1261.19 745.431L1261.19 729L1265.87 729L1265.87 764.547L1261.19 764.547L1261.19 749.264L1243.27 749.264L1243.27 764.547L1238.55 764.547L1238.55 729ZM1226.03 729L1230.55 729L1230.55 755.416L1226.03 755.416L1226.03 729ZM1230.91 762.423C1230.91 763.155 1230.69 763.774 1230.25 764.278C1229.8 764.783 1229.13 765.035 1228.25 765.035C1227.37 765.035 1226.71 764.783 1226.25 764.278C1225.79 763.774 1225.57 763.155 1225.57 762.423C1225.57 761.69 1225.79 761.08 1226.25 760.592C1226.71 760.104 1227.37 759.859 1228.25 759.859C1229.13 759.859 1229.8 760.104 1230.25 760.592C1230.69 761.08 1230.91 761.69 1230.91 762.423ZM1202.13 755.416L1202.01 752.486C1200.07 754.765 1197.46 755.904 1194.17 755.904C1190.48 755.904 1187.96 754.488 1186.63 751.656C1185.75 752.926 1184.61 753.951 1183.21 754.732C1181.79 755.514 1180.12 755.904 1178.2 755.904C1172.41 755.904 1169.46 752.836 1169.37 746.7L1169.37 729L1173.88 729L1173.88 746.432C1173.88 748.32 1174.31 749.728 1175.18 750.655C1176.04 751.599 1177.49 752.071 1179.52 752.071C1181.2 752.071 1182.59 751.567 1183.7 750.558C1184.8 749.565 1185.45 748.222 1185.62 746.529L1185.62 729L1190.17 729L1190.17 746.31C1190.17 750.151 1192.05 752.071 1195.81 752.071C1198.77 752.071 1200.79 750.81 1201.88 748.287L1201.88 729L1206.4 729L1206.4 755.416L1202.13 755.416ZM1153.89 735.616L1147.73 755.416L1142.9 755.416L1153.52 724.923C1155.16 720.528 1157.78 718.331 1161.36 718.331L1162.21 718.404L1163.9 718.722L1163.9 722.384L1162.68 722.286C1161.15 722.286 1159.96 722.595 1159.11 723.214C1158.25 723.832 1157.54 724.964 1156.99 726.607L1155.99 729.293L1165.41 755.416L1160.48 755.416L1153.89 735.616ZM1122.17 755.416L1122.03 752.096C1120.01 754.635 1117.37 755.904 1114.12 755.904C1108.53 755.904 1105.72 752.755 1105.67 746.456L1105.67 729L1110.19 729L1110.19 746.48C1110.2 748.385 1110.64 749.793 1111.5 750.704C1112.35 751.616 1113.68 752.071 1115.48 752.071C1116.95 752.071 1118.23 751.681 1119.34 750.899C1120.45 750.118 1121.31 749.093 1121.93 747.823L1121.93 729L1126.45 729L1126.45 755.416L1122.17 755.416ZM1082.55 729C1082.81 729.521 1083.02 730.449 1083.18 731.783C1085.28 729.602 1087.79 728.512 1090.7 728.512C1093.31 728.512 1095.45 729.244 1097.12 730.709C1098.78 732.19 1099.61 734.062 1099.61 736.324C1099.61 739.075 1098.57 741.207 1096.49 742.721C1094.39 744.251 1091.44 745.016 1087.65 745.016L1083.26 745.016L1083.26 747.091C1083.26 748.67 1083.73 749.923 1084.67 750.851C1085.62 751.795 1087.01 752.267 1088.85 752.267C1090.46 752.267 1091.81 751.86 1092.9 751.046C1093.99 750.232 1094.54 749.247 1094.54 748.092L1099.08 748.092C1099.08 749.41 1098.61 750.68 1097.69 751.9C1096.74 753.137 1095.47 754.114 1093.88 754.83C1092.27 755.546 1090.5 755.904 1088.58 755.904C1085.54 755.904 1083.15 755.139 1081.43 753.609C1079.7 752.096 1078.81 750.004 1078.74 747.335L1078.74 735.177C1078.74 732.752 1078.43 730.823 1077.81 729.391L1077.81 729L1082.55 729ZM1090.04 732.442C1088.63 732.442 1087.29 732.809 1086.02 733.541C1084.75 734.273 1083.83 735.226 1083.26 736.397L1083.26 741.817L1086.8 741.817C1092.33 741.817 1095.1 740.198 1095.1 736.959C1095.1 735.543 1094.63 734.436 1093.68 733.639C1092.74 732.841 1091.53 732.442 1090.04 732.442ZM1067.41 755.416L1067.29 752.486C1065.35 754.765 1062.74 755.904 1059.45 755.904C1055.76 755.904 1053.24 754.488 1051.91 751.656C1051.03 752.926 1049.89 753.951 1048.49 754.732C1047.08 755.514 1045.41 755.904 1043.49 755.904C1037.69 755.904 1034.75 752.836 1034.65 746.7L1034.65 729L1039.17 729L1039.17 746.432C1039.17 748.32 1039.6 749.728 1040.46 750.655C1041.32 751.599 1042.77 752.071 1044.8 752.071C1046.48 752.071 1047.87 751.567 1048.98 750.558C1050.09 749.565 1050.73 748.222 1050.91 746.529L1050.91 729L1055.45 729L1055.45 746.31C1055.45 750.151 1057.33 752.071 1061.09 752.071C1064.05 752.071 1066.08 750.81 1067.17 748.287L1067.17 729L1071.68 729L1071.68 755.416L1067.41 755.416ZM1016.85 728.512C1020.43 728.512 1023.34 729.684 1025.59 732.027C1027.84 734.387 1028.96 737.537 1028.96 741.476L1028.96 742.306C1028.96 744.926 1028.46 747.262 1027.47 749.313C1026.46 751.38 1025.06 752.991 1023.27 754.147C1021.46 755.318 1019.51 755.904 1017.41 755.904C1013.98 755.904 1011.31 754.773 1009.4 752.511C1007.5 750.248 1006.55 747.009 1006.55 742.794L1006.55 740.914L1024.44 740.914C1024.38 738.31 1023.62 736.202 1022.17 734.591C1020.71 732.996 1018.85 732.198 1016.61 732.198C1015.01 732.198 1013.66 732.524 1012.55 733.175C1011.45 733.826 1010.48 734.688 1009.65 735.763L1006.89 733.614C1009.1 730.213 1012.42 728.512 1016.85 728.512ZM1017.41 752.193C1019.24 752.193 1020.76 751.526 1022 750.191C1023.24 748.873 1024 747.018 1024.3 744.625L1011.06 744.625L1011.06 744.967C1011.19 747.262 1011.81 749.036 1012.92 750.289C1014.03 751.559 1015.52 752.193 1017.41 752.193ZM983.989 729L988.506 729L988.506 755.416L983.989 755.416L983.989 729ZM988.872 762.423C988.872 763.155 988.652 763.774 988.213 764.278C987.757 764.783 987.09 765.035 986.211 765.035C985.332 765.035 984.665 764.783 984.209 764.278C983.753 763.774 983.525 763.155 983.525 762.423C983.525 761.69 983.753 761.08 984.209 760.592C984.665 760.104 985.332 759.859 986.211 759.859C987.09 759.859 987.757 760.104 988.213 760.592C988.652 761.08 988.872 761.69 988.872 762.423ZM961.357 736.007C961.357 737.228 961.821 738.172 962.749 738.839C963.66 739.522 965.264 740.108 967.559 740.597C969.837 741.085 971.652 741.671 973.003 742.355C974.338 743.038 975.33 743.852 975.981 744.796C976.616 745.74 976.934 746.863 976.934 748.165C976.934 750.33 976.022 752.161 974.199 753.658C972.36 755.156 970.016 755.904 967.168 755.904C964.173 755.904 961.748 755.131 959.893 753.585C958.021 752.039 957.085 750.061 957.085 747.652L961.626 747.652C961.626 748.889 962.155 749.955 963.213 750.851C964.255 751.746 965.573 752.193 967.168 752.193C968.812 752.193 970.098 751.835 971.025 751.119C971.953 750.403 972.417 749.467 972.417 748.312C972.417 747.221 971.986 746.399 971.123 745.846C970.26 745.292 968.706 744.763 966.46 744.259C964.198 743.754 962.367 743.152 960.967 742.452C959.567 741.752 958.534 740.906 957.866 739.913C957.183 738.937 956.841 737.74 956.841 736.324C956.841 733.964 957.785 732.068 959.673 730.636C961.561 729.22 964.01 728.512 967.021 728.512C969.137 728.512 971.009 728.886 972.637 729.635C974.264 730.383 975.542 731.425 976.47 732.76C977.381 734.111 977.837 735.567 977.837 737.13L973.32 737.13C973.239 735.616 972.637 734.412 971.514 733.517C970.374 732.638 968.877 732.198 967.021 732.198C965.312 732.198 963.945 732.54 962.92 733.224C961.878 733.924 961.357 734.851 961.357 736.007ZM922.954 764.547L918.242 764.547L918.242 739.376C918.242 735.974 919.268 733.313 921.318 731.393C923.353 729.472 926.071 728.512 929.473 728.512C933.005 728.512 935.755 729.415 937.725 731.222C939.694 733.028 940.679 735.559 940.679 738.814L935.991 738.814C935.991 736.78 935.438 735.193 934.331 734.054C933.208 732.914 931.589 732.345 929.473 732.345C927.536 732.345 925.973 732.955 924.785 734.176C923.581 735.397 922.97 737.105 922.954 739.303L922.954 764.547ZM906.06 729L910.576 729L910.576 755.416L906.06 755.416L906.06 729ZM910.942 762.423C910.942 763.155 910.723 763.774 910.283 764.278C909.827 764.783 909.16 765.035 908.281 765.035C907.402 765.035 906.735 764.783 906.279 764.278C905.824 763.774 905.596 763.155 905.596 762.423C905.596 761.69 905.824 761.08 906.279 760.592C906.735 760.104 907.402 759.859 908.281 759.859C909.16 759.859 909.827 760.104 910.283 760.592C910.723 761.08 910.942 761.69 910.942 762.423ZM894.536 755.416L894.39 752.096C892.371 754.635 889.735 755.904 886.479 755.904C880.897 755.904 878.081 752.755 878.032 746.456L878.032 729L882.549 729L882.549 746.481C882.565 748.385 883.005 749.793 883.867 750.704C884.714 751.616 886.04 752.071 887.847 752.071C889.312 752.071 890.597 751.681 891.704 750.899C892.811 750.118 893.674 749.093 894.292 747.823L894.292 729L898.809 729L898.809 755.416L894.536 755.416ZM872.295 742.428C872.295 746.546 871.343 749.817 869.438 752.242C867.534 754.684 865.011 755.904 861.87 755.904C858.647 755.904 856.133 754.765 854.326 752.486L854.106 755.416L849.98 755.416L849.98 729.635C849.98 726.217 850.998 723.523 853.032 721.554C855.05 719.584 857.769 718.6 861.187 718.6C863.091 718.6 864.954 719.007 866.777 719.82C868.6 720.634 869.992 721.749 870.952 723.165L868.608 725.875C866.672 723.482 864.303 722.286 861.504 722.286C859.307 722.286 857.598 722.905 856.377 724.142C855.14 725.379 854.521 727.12 854.521 729.366L854.521 731.637C856.328 729.553 858.794 728.512 861.919 728.512C865.011 728.512 867.518 729.757 869.438 732.247C871.343 734.737 872.295 738.131 872.295 742.428ZM867.754 741.915C867.754 738.937 867.144 736.593 865.923 734.884C864.702 733.191 862.993 732.345 860.796 732.345C857.948 732.345 855.856 733.639 854.521 736.227L854.521 748.287C855.905 750.81 857.98 752.071 860.747 752.071C862.944 752.071 864.661 751.217 865.898 749.508C867.135 747.799 867.754 745.268 867.754 741.915ZM834.282 745.772L828.423 755.416L823.149 755.416L831.792 742.355L822.881 729L828.105 729L834.209 738.888L840.312 729L845.562 729L836.65 742.355L845.293 755.416L840.068 755.416L834.282 745.772ZM802.031 731.612C803.789 729.545 806.369 728.512 809.771 728.512C812.586 728.512 814.735 729.326 816.216 730.953C817.681 732.597 818.421 735.022 818.437 738.229L818.437 755.416L813.921 755.416L813.921 738.351C813.921 734.347 812.293 732.345 809.038 732.345C805.588 732.345 803.293 733.631 802.153 736.202L802.153 755.416L797.637 755.416L797.637 729L801.934 729L802.031 731.612ZM774.443 729C774.704 729.521 774.915 730.449 775.078 731.783C777.178 729.602 779.684 728.512 782.598 728.512C785.202 728.512 787.342 729.244 789.019 730.709C790.679 732.19 791.509 734.062 791.509 736.324C791.509 739.075 790.467 741.207 788.384 742.721C786.284 744.251 783.338 745.016 779.546 745.016L775.151 745.016L775.151 747.091C775.151 748.67 775.623 749.923 776.567 750.851C777.511 751.795 778.903 752.267 780.742 752.267C782.354 752.267 783.704 751.86 784.795 751.046C785.885 750.232 786.431 749.247 786.431 748.092L790.972 748.092C790.972 749.41 790.508 750.68 789.58 751.9C788.636 753.137 787.367 754.114 785.771 754.83C784.16 755.546 782.394 755.904 780.474 755.904C777.43 755.904 775.046 755.139 773.32 753.609C771.595 752.096 770.7 750.004 770.635 747.335L770.635 735.177C770.635 732.752 770.326 730.823 769.707 729.391L769.707 729L774.443 729ZM781.938 732.442C780.522 732.442 779.18 732.809 777.91 733.541C776.641 734.273 775.721 735.226 775.151 736.398L775.151 741.817L778.691 741.817C784.225 741.817 786.992 740.198 786.992 736.959C786.992 735.543 786.52 734.436 785.576 733.639C784.632 732.841 783.42 732.442 781.938 732.442ZM759.282 755.416L759.136 752.096C757.118 754.635 754.481 755.904 751.226 755.904C745.643 755.904 742.827 752.755 742.778 746.456L742.778 729L747.295 729L747.295 746.481C747.311 748.385 747.751 749.793 748.613 750.704C749.46 751.616 750.786 752.071 752.593 752.071C754.058 752.071 755.343 751.681 756.45 750.899C757.557 750.118 758.42 749.093 759.038 747.823L759.038 729L763.555 729L763.555 755.416L759.282 755.416Z" fill="white"/>
</g>
</svg>
